<svg width="64" height="64" viewBox="0 0 64 64" fill="none" xmlns="http://www.w3.org/2000/svg">
  <rect width="64" height="64" rx="16" fill="#000000"/>
  <g transform="translate(13, 15)">
    <path d="M28.5 4.5C28.5 2.01472 26.4853 0 24 0H14C11.5147 0 9.5 2.01472 9.5 4.5V16.5L4.5 21.5C2.01472 24 0 26.0147 0 28.5C0 30.9853 2.01472 33 4.5 33H14.5C16.9853 33 19 30.9853 19 28.5V16.5L24 11.5C26.4853 9 28.5 6.98528 28.5 4.5Z" fill="#2D6DDB"/>
    <path d="M9.5 28.5C9.5 30.9853 11.5147 33 14 33H24C26.4853 33 28.5 30.9853 28.5 28.5V16.5L33.5 11.5C35.9853 9 38 6.98528 38 4.5C38 2.01472 35.9853 0 33.5 0H23.5C21.0147 0 19 2.01472 19 4.5V16.5L14 21.5C11.5147 24 9.5 26.0147 9.5 28.5Z" fill="#2D6DDB" transform="rotate(180 19 16.5)"/>
  </g>
</svg>
